<svg width="128" height="14" viewBox="0 0 128 14" fill="none" xmlns="http://www.w3.org/2000/svg">
<path d="M2.5 5.90909C2.5 5.36553 2.63258 4.87003 2.89773 4.42259C3.16288 3.97514 3.51918 3.61884 3.96662 3.35369C4.41406 3.08854 4.90956 2.95597 5.45312 2.95597C5.92377 2.95597 6.35795 3.05705 6.75568 3.25923C7.15672 3.46141 7.48816 3.73816 7.75 4.08949C8.01184 4.4375 8.17424 4.83191 8.23722 5.27273H7.03409C6.9678 4.93134 6.78385 4.65294 6.48224 4.4375C6.18063 4.21875 5.83759 4.10938 5.45312 4.10938C5.12169 4.10938 4.82008 4.19058 4.5483 4.35298C4.27652 4.51539 4.05942 4.73248 3.89702 5.00426C3.73461 5.27604 3.65341 5.57765 3.65341 5.90909C3.65341 6.24053 3.73461 6.54214 3.89702 6.81392C4.05942 7.0857 4.27652 7.30279 4.5483 7.4652C4.82008 7.6276 5.12169 7.70881 5.45312 7.70881C5.83759 7.70881 6.16241 7.60109 6.42756 7.38565C6.69602 7.1669 6.86506 6.88684 6.93466 6.54545H8.13778C8.07481 6.98627 7.92069 7.38234 7.67543 7.73366C7.43016 8.08168 7.11529 8.35677 6.73082 8.55895C6.34967 8.76113 5.92377 8.86222 5.45312 8.86222C4.90956 8.86222 4.41406 8.72964 3.96662 8.46449C3.51918 8.19934 3.16288 7.84304 2.89773 7.3956C2.63258 6.94815 2.5 6.45265 2.5 5.90909ZM5.40341 11.1591C4.68087 11.1591 4.00142 11.0232 3.36506 10.7514C2.73201 10.4796 2.17353 10.1035 1.68963 9.62287C1.20904 9.13897 0.831203 8.58049 0.556108 7.94744C0.284328 7.31439 0.150095 6.63494 0.153409 5.90909C0.156723 5.18324 0.294271 4.50379 0.566051 3.87074C0.841146 3.23769 1.21899 2.68087 1.69957 2.20028C2.18016 1.71638 2.73698 1.33854 3.37003 1.06676C4.00308 0.794981 4.68087 0.659091 5.40341 0.659091C6.12926 0.659091 6.80871 0.794981 7.44176 1.06676C8.07813 1.33854 8.63494 1.71638 9.11222 2.20028C9.5928 2.68087 9.96899 3.23769 10.2408 3.87074C10.5125 4.50379 10.6501 5.18324 10.6534 5.90909C10.6567 6.63494 10.5225 7.31439 10.2507 7.94744C9.97893 8.58049 9.60275 9.13897 9.12216 9.62287C8.64157 10.1035 8.0831 10.4796 7.44673 10.7514C6.81037 11.0232 6.12926 11.1591 5.40341 11.1591ZM5.40341 10.0057C5.97017 10.0057 6.50213 9.89962 6.99929 9.6875C7.49645 9.47538 7.93229 9.18205 8.30682 8.80753C8.68134 8.433 8.97467 7.99882 9.18679 7.50497C9.39891 7.00781 9.50331 6.47751 9.5 5.91406C9.49669 5.3473 9.38897 4.81534 9.17685 4.31818C8.96473 3.82102 8.6714 3.38518 8.29688 3.01065C7.92235 2.63613 7.48816 2.3428 6.99432 2.13068C6.50047 1.91856 5.97017 1.8125 5.40341 1.8125C4.83996 1.8125 4.31132 1.91856 3.81747 2.13068C3.32363 2.3428 2.88944 2.63778 2.51491 3.01562C2.14039 3.39015 1.84541 3.82599 1.62997 4.32315C1.41785 4.817 1.31013 5.3473 1.30682 5.91406C1.3035 6.47419 1.40791 7.00284 1.62003 7.5C1.83215 7.99384 2.12547 8.42803 2.5 8.80256C2.87784 9.17708 3.31368 9.47206 3.80753 9.6875C4.30469 9.89962 4.83665 10.0057 5.40341 10.0057ZM16.802 11V10.1051L20.1628 6.42614C20.5572 5.99526 20.882 5.62074 21.1373 5.30256C21.3925 4.98106 21.5814 4.67945 21.704 4.39773C21.83 4.11269 21.8929 3.81439 21.8929 3.50284C21.8929 3.14489 21.8068 2.83499 21.6344 2.57315C21.4654 2.31132 21.2334 2.10914 20.9384 1.96662C20.6434 1.8241 20.312 1.75284 19.9441 1.75284C19.553 1.75284 19.2116 1.83404 18.9199 1.99645C18.6316 2.15554 18.4078 2.37926 18.2488 2.66761C18.093 2.95597 18.0151 3.29403 18.0151 3.68182H16.8418C16.8418 3.08523 16.9793 2.56155 17.2544 2.1108C17.5295 1.66004 17.9041 1.30871 18.378 1.05682C18.8553 0.804924 19.3906 0.678977 19.9838 0.678977C20.5804 0.678977 21.1091 0.804924 21.5698 1.05682C22.0305 1.30871 22.3917 1.64844 22.6536 2.07599C22.9154 2.50355 23.0463 2.97917 23.0463 3.50284C23.0463 3.87737 22.9784 4.24361 22.8425 4.60156C22.7099 4.9562 22.4779 5.35227 22.1465 5.78977C21.8184 6.22396 21.3626 6.75426 20.7793 7.38068L18.4924 9.8267V9.90625H23.2253V11H16.802ZM28.5996 11.1392C27.8506 11.1392 27.2125 10.9354 26.6855 10.5277C26.1586 10.1167 25.7559 9.52178 25.4775 8.7429C25.199 7.9607 25.0598 7.0161 25.0598 5.90909C25.0598 4.80871 25.199 3.86908 25.4775 3.0902C25.7592 2.308 26.1635 1.71141 26.6905 1.30043C27.2208 0.886126 27.8572 0.678977 28.5996 0.678977C29.342 0.678977 29.9767 0.886126 30.5037 1.30043C31.034 1.71141 31.4384 2.308 31.7168 3.0902C31.9985 3.86908 32.1394 4.80871 32.1394 5.90909C32.1394 7.0161 32.0002 7.9607 31.7218 8.7429C31.4434 9.52178 31.0407 10.1167 30.5137 10.5277C29.9867 10.9354 29.3487 11.1392 28.5996 11.1392ZM28.5996 10.0455C29.342 10.0455 29.9187 9.6875 30.3297 8.97159C30.7407 8.25568 30.9462 7.23485 30.9462 5.90909C30.9462 5.02746 30.8517 4.27675 30.6628 3.65696C30.4772 3.03717 30.2087 2.56487 29.8574 2.24006C29.5094 1.91525 29.0901 1.75284 28.5996 1.75284C27.8638 1.75284 27.2888 2.11577 26.8745 2.84162C26.4602 3.56416 26.253 4.58665 26.253 5.90909C26.253 6.79072 26.3458 7.53977 26.5314 8.15625C26.717 8.77273 26.9838 9.24171 27.3319 9.56321C27.6832 9.88471 28.1058 10.0455 28.5996 10.0455ZM34.0286 11V10.1051L37.3894 6.42614C37.7838 5.99526 38.1086 5.62074 38.3638 5.30256C38.619 4.98106 38.8079 4.67945 38.9306 4.39773C39.0565 4.11269 39.1195 3.81439 39.1195 3.50284C39.1195 3.14489 39.0333 2.83499 38.861 2.57315C38.6919 2.31132 38.4599 2.10914 38.165 1.96662C37.87 1.8241 37.5385 1.75284 37.1706 1.75284C36.7795 1.75284 36.4382 1.83404 36.1465 1.99645C35.8581 2.15554 35.6344 2.37926 35.4753 2.66761C35.3195 2.95597 35.2417 3.29403 35.2417 3.68182H34.0684C34.0684 3.08523 34.2059 2.56155 34.481 2.1108C34.7561 1.66004 35.1306 1.30871 35.6046 1.05682C36.0819 0.804924 36.6171 0.678977 37.2104 0.678977C37.807 0.678977 38.3356 0.804924 38.7963 1.05682C39.257 1.30871 39.6183 1.64844 39.8801 2.07599C40.142 2.50355 40.2729 2.97917 40.2729 3.50284C40.2729 3.87737 40.205 4.24361 40.0691 4.60156C39.9365 4.9562 39.7045 5.35227 39.373 5.78977C39.0449 6.22396 38.5892 6.75426 38.0059 7.38068L35.7189 9.8267V9.90625H40.4519V11H34.0286ZM42.5051 11V10.1051L45.8659 6.42614C46.2604 5.99526 46.5852 5.62074 46.8404 5.30256C47.0956 4.98106 47.2845 4.67945 47.4071 4.39773C47.5331 4.11269 47.5961 3.81439 47.5961 3.50284C47.5961 3.14489 47.5099 2.83499 47.3375 2.57315C47.1685 2.31132 46.9365 2.10914 46.6415 1.96662C46.3465 1.8241 46.0151 1.75284 45.6472 1.75284C45.2561 1.75284 44.9147 1.83404 44.623 1.99645C44.3347 2.15554 44.111 2.37926 43.9519 2.66761C43.7961 2.95597 43.7182 3.29403 43.7182 3.68182H42.5449C42.5449 3.08523 42.6825 2.56155 42.9576 2.1108C43.2327 1.66004 43.6072 1.30871 44.0811 1.05682C44.5584 0.804924 45.0937 0.678977 45.687 0.678977C46.2836 0.678977 46.8122 0.804924 47.2729 1.05682C47.7336 1.30871 48.0949 1.64844 48.3567 2.07599C48.6185 2.50355 48.7495 2.97917 48.7495 3.50284C48.7495 3.87737 48.6815 4.24361 48.5456 4.60156C48.4131 4.9562 48.181 5.35227 47.8496 5.78977C47.5215 6.22396 47.0658 6.75426 46.4824 7.38068L44.1955 9.8267V9.90625H48.9284V11H42.5051ZM55.5158 11H54.2232L57.9618 0.818182H59.2346L62.9732 11H61.6806L58.638 2.42898H58.5584L55.5158 11ZM55.9931 7.02273H61.2033V8.11648H55.9931V7.02273ZM64.4821 11V3.36364H65.6554V11H64.4821ZM65.0787 2.09091C64.85 2.09091 64.6528 2.01302 64.487 1.85724C64.3246 1.70147 64.2434 1.5142 64.2434 1.29545C64.2434 1.0767 64.3246 0.889441 64.487 0.733664C64.6528 0.577888 64.85 0.5 65.0787 0.5C65.3074 0.5 65.5029 0.577888 65.6653 0.733664C65.831 0.889441 65.9139 1.0767 65.9139 1.29545C65.9139 1.5142 65.831 1.70147 65.6653 1.85724C65.5029 2.01302 65.3074 2.09091 65.0787 2.09091ZM67.8043 11V3.36364H68.9379V4.51705H69.0174C69.1566 4.1392 69.4085 3.83262 69.7731 3.5973C70.1377 3.36198 70.5487 3.24432 71.006 3.24432C71.0922 3.24432 71.1999 3.24597 71.3292 3.24929C71.4585 3.2526 71.5562 3.25758 71.6225 3.2642V4.45739C71.5827 4.44744 71.4916 4.43253 71.3491 4.41264C71.2099 4.38944 71.0624 4.37784 70.9066 4.37784C70.5354 4.37784 70.204 4.45573 69.9123 4.61151C69.6239 4.76397 69.3952 4.97609 69.2262 5.24787C69.0605 5.51634 68.9776 5.82292 68.9776 6.16761V11H67.8043ZM73.1724 11V0.818182H74.3457V4.5767H74.4451C74.5313 4.44413 74.6506 4.27509 74.8031 4.0696C74.9589 3.8608 75.1809 3.67519 75.4693 3.51278C75.7609 3.34706 76.1554 3.2642 76.6525 3.2642C77.2955 3.2642 77.8623 3.42495 78.3528 3.74645C78.8433 4.06794 79.2261 4.52367 79.5012 5.11364C79.7763 5.7036 79.9139 6.39962 79.9139 7.2017C79.9139 8.01042 79.7763 8.71141 79.5012 9.30469C79.2261 9.89465 78.845 10.352 78.3578 10.6768C77.8706 10.9983 77.3088 11.1591 76.6724 11.1591C76.1819 11.1591 75.7891 11.0779 75.4941 10.9155C75.1992 10.7498 74.9721 10.5625 74.813 10.3537C74.6539 10.1416 74.5313 9.96591 74.4451 9.8267H74.3059V11H73.1724ZM74.3258 7.18182C74.3258 7.75852 74.4103 8.26728 74.5794 8.7081C74.7484 9.1456 74.9953 9.48864 75.3201 9.73722C75.6449 9.98248 76.0427 10.1051 76.5133 10.1051C77.0038 10.1051 77.4132 9.97585 77.7413 9.71733C78.0727 9.45549 78.3213 9.10417 78.487 8.66335C78.6561 8.21922 78.7406 7.72538 78.7406 7.18182C78.7406 6.64489 78.6577 6.16098 78.492 5.73011C78.3296 5.29593 78.0827 4.95289 77.7512 4.70099C77.4231 4.44579 77.0105 4.31818 76.5133 4.31818C76.036 4.31818 75.635 4.43916 75.3102 4.68111C74.9854 4.91974 74.7401 5.2545 74.5744 5.68537C74.4087 6.11293 74.3258 6.61174 74.3258 7.18182ZM82.8819 6.40625V11H81.7086V3.36364H82.8422V4.55682H82.9416C83.1206 4.16903 83.3923 3.85748 83.7569 3.62216C84.1215 3.38352 84.5922 3.2642 85.1689 3.2642C85.6859 3.2642 86.1383 3.37027 86.5261 3.58239C86.9139 3.79119 87.2155 4.10938 87.4309 4.53693C87.6464 4.96117 87.7541 5.49811 87.7541 6.14773V11H86.5808V6.22727C86.5808 5.62737 86.425 5.16004 86.1135 4.82528C85.8019 4.48722 85.3743 4.31818 84.8308 4.31818C84.4563 4.31818 84.1215 4.39938 83.8265 4.56179C83.5349 4.72419 83.3045 4.96117 83.1355 5.27273C82.9664 5.58428 82.8819 5.96212 82.8819 6.40625ZM90.0572 11V0.818182H91.2305V4.5767H91.3299C91.4161 4.44413 91.5354 4.27509 91.6879 4.0696C91.8436 3.8608 92.0657 3.67519 92.354 3.51278C92.6457 3.34706 93.0401 3.2642 93.5373 3.2642C94.1803 3.2642 94.747 3.42495 95.2376 3.74645C95.7281 4.06794 96.1109 4.52367 96.386 5.11364C96.6611 5.7036 96.7987 6.39962 96.7987 7.2017C96.7987 8.01042 96.6611 8.71141 96.386 9.30469C96.1109 9.89465 95.7298 10.352 95.2425 10.6768C94.7553 10.9983 94.1935 11.1591 93.5572 11.1591C93.0666 11.1591 92.6739 11.0779 92.3789 10.9155C92.0839 10.7498 91.8569 10.5625 91.6978 10.3537C91.5387 10.1416 91.4161 9.96591 91.3299 9.8267H91.1907V11H90.0572ZM91.2106 7.18182C91.2106 7.75852 91.2951 8.26728 91.4641 8.7081C91.6332 9.1456 91.8801 9.48864 92.2049 9.73722C92.5297 9.98248 92.9274 10.1051 93.3981 10.1051C93.8886 10.1051 94.2979 9.97585 94.6261 9.71733C94.9575 9.45549 95.2061 9.10417 95.3718 8.66335C95.5408 8.21922 95.6254 7.72538 95.6254 7.18182C95.6254 6.64489 95.5425 6.16098 95.3768 5.73011C95.2144 5.29593 94.9674 4.95289 94.636 4.70099C94.3079 4.44579 93.8952 4.31818 93.3981 4.31818C92.9208 4.31818 92.5198 4.43916 92.195 4.68111C91.8701 4.91974 91.6249 5.2545 91.4592 5.68537C91.2934 6.11293 91.2106 6.61174 91.2106 7.18182ZM100.343 9.60795L100.264 10.1449C100.208 10.5227 100.121 10.9271 100.005 11.358C99.8926 11.7888 99.775 12.1948 99.6523 12.576C99.5297 12.9571 99.4286 13.2604 99.3491 13.4858H98.4542C98.4973 13.2737 98.5536 12.9936 98.6232 12.6456C98.6928 12.2976 98.7624 11.9081 98.832 11.4773C98.9049 11.0497 98.9646 10.6122 99.011 10.1648L99.0707 9.60795H100.343ZM107.847 0.818182V11H106.614V0.818182H107.847ZM111.333 6.40625V11H110.16V3.36364H111.293V4.55682H111.393C111.572 4.16903 111.844 3.85748 112.208 3.62216C112.573 3.38352 113.043 3.2642 113.62 3.2642C114.137 3.2642 114.589 3.37027 114.977 3.58239C115.365 3.79119 115.667 4.10938 115.882 4.53693C116.098 4.96117 116.205 5.49811 116.205 6.14773V11H115.032V6.22727C115.032 5.62737 114.876 5.16004 114.565 4.82528C114.253 4.48722 113.826 4.31818 113.282 4.31818C112.907 4.31818 112.573 4.39938 112.278 4.56179C111.986 4.72419 111.756 4.96117 111.587 5.27273C111.418 5.58428 111.333 5.96212 111.333 6.40625ZM121.452 11.1591C120.736 11.1591 120.119 10.9901 119.602 10.652C119.085 10.3139 118.687 9.84825 118.409 9.25497C118.131 8.66169 117.991 7.9839 117.991 7.22159C117.991 6.44602 118.134 5.7616 118.419 5.16832C118.707 4.57173 119.108 4.10606 119.622 3.77131C120.139 3.43324 120.742 3.2642 121.432 3.2642C121.969 3.2642 122.452 3.36364 122.883 3.5625C123.314 3.76136 123.667 4.03977 123.942 4.39773C124.217 4.75568 124.388 5.1733 124.454 5.65057H123.281C123.192 5.30256 122.993 4.99432 122.684 4.72585C122.38 4.45407 121.969 4.31818 121.452 4.31818C120.994 4.31818 120.593 4.4375 120.248 4.67614C119.907 4.91146 119.64 5.24455 119.448 5.67543C119.259 6.10298 119.165 6.60511 119.165 7.18182C119.165 7.77178 119.257 8.28551 119.443 8.72301C119.632 9.16051 119.897 9.50024 120.238 9.74219C120.583 9.98414 120.988 10.1051 121.452 10.1051C121.756 10.1051 122.033 10.0521 122.282 9.94602C122.53 9.83996 122.741 9.6875 122.913 9.48864C123.086 9.28977 123.208 9.05114 123.281 8.77273H124.454C124.388 9.22348 124.224 9.6295 123.962 9.99077C123.704 10.3487 123.361 10.6338 122.933 10.8459C122.509 11.0547 122.015 11.1591 121.452 11.1591ZM127.025 11.0795C126.779 11.0795 126.569 10.9917 126.393 10.8161C126.218 10.6404 126.13 10.4299 126.13 10.1847C126.13 9.93939 126.218 9.72893 126.393 9.55327C126.569 9.3776 126.779 9.28977 127.025 9.28977C127.27 9.28977 127.48 9.3776 127.656 9.55327C127.832 9.72893 127.92 9.93939 127.92 10.1847C127.92 10.3471 127.878 10.4962 127.795 10.6321C127.716 10.768 127.608 10.8774 127.472 10.9602C127.34 11.0398 127.19 11.0795 127.025 11.0795Z" fill="#4B5563"/>
</svg>
